<mxfile host="Electron" modified="2025-01-21T07:16:04.193Z" agent="Mozilla/5.0 (Windows NT 10.0; Win64; x64) AppleWebKit/537.36 (KHTML, like Gecko) draw.io/21.2.8 Chrome/112.0.5615.165 Electron/24.2.0 Safari/537.36" etag="AgF4AzCGg8j_T9cXnFN3" version="21.2.8" type="device">
  <diagram name="Page-1" id="S4uViBZzeBC_5auO9inV">
    <mxGraphModel dx="1050" dy="629" grid="1" gridSize="10" guides="1" tooltips="1" connect="1" arrows="1" fold="1" page="1" pageScale="1" pageWidth="1100" pageHeight="850" math="0" shadow="0">
      <root>
        <mxCell id="0" />
        <mxCell id="1" parent="0" />
        <mxCell id="hiQsKNsFAglLUoJC1yVU-6" style="edgeStyle=orthogonalEdgeStyle;rounded=0;orthogonalLoop=1;jettySize=auto;html=1;" edge="1" parent="1" source="hiQsKNsFAglLUoJC1yVU-1" target="hiQsKNsFAglLUoJC1yVU-3">
          <mxGeometry relative="1" as="geometry" />
        </mxCell>
        <mxCell id="hiQsKNsFAglLUoJC1yVU-7" style="edgeStyle=orthogonalEdgeStyle;rounded=0;orthogonalLoop=1;jettySize=auto;html=1;" edge="1" parent="1" source="hiQsKNsFAglLUoJC1yVU-1" target="hiQsKNsFAglLUoJC1yVU-2">
          <mxGeometry relative="1" as="geometry" />
        </mxCell>
        <mxCell id="hiQsKNsFAglLUoJC1yVU-1" value="Amazon&lt;br&gt;CloudFront" style="whiteSpace=wrap;html=1;aspect=fixed;" vertex="1" parent="1">
          <mxGeometry x="80" y="200" width="80" height="80" as="geometry" />
        </mxCell>
        <mxCell id="hiQsKNsFAglLUoJC1yVU-2" value="Amazon&lt;br&gt;S3 (Buckets)" style="whiteSpace=wrap;html=1;aspect=fixed;" vertex="1" parent="1">
          <mxGeometry x="80" y="360" width="80" height="80" as="geometry" />
        </mxCell>
        <mxCell id="hiQsKNsFAglLUoJC1yVU-5" style="edgeStyle=orthogonalEdgeStyle;rounded=0;orthogonalLoop=1;jettySize=auto;html=1;" edge="1" parent="1" source="hiQsKNsFAglLUoJC1yVU-3" target="hiQsKNsFAglLUoJC1yVU-4">
          <mxGeometry relative="1" as="geometry" />
        </mxCell>
        <mxCell id="hiQsKNsFAglLUoJC1yVU-3" value="Application Load Balancer" style="whiteSpace=wrap;html=1;aspect=fixed;" vertex="1" parent="1">
          <mxGeometry x="240" y="200" width="80" height="80" as="geometry" />
        </mxCell>
        <mxCell id="hiQsKNsFAglLUoJC1yVU-11" style="edgeStyle=orthogonalEdgeStyle;rounded=0;orthogonalLoop=1;jettySize=auto;html=1;" edge="1" parent="1" source="hiQsKNsFAglLUoJC1yVU-4" target="hiQsKNsFAglLUoJC1yVU-9">
          <mxGeometry relative="1" as="geometry" />
        </mxCell>
        <mxCell id="hiQsKNsFAglLUoJC1yVU-12" style="edgeStyle=orthogonalEdgeStyle;rounded=0;orthogonalLoop=1;jettySize=auto;html=1;" edge="1" parent="1" source="hiQsKNsFAglLUoJC1yVU-4" target="hiQsKNsFAglLUoJC1yVU-8">
          <mxGeometry relative="1" as="geometry">
            <Array as="points">
              <mxPoint x="520" y="240" />
              <mxPoint x="520" y="120" />
            </Array>
          </mxGeometry>
        </mxCell>
        <mxCell id="hiQsKNsFAglLUoJC1yVU-13" style="edgeStyle=orthogonalEdgeStyle;rounded=0;orthogonalLoop=1;jettySize=auto;html=1;" edge="1" parent="1" source="hiQsKNsFAglLUoJC1yVU-4" target="hiQsKNsFAglLUoJC1yVU-10">
          <mxGeometry relative="1" as="geometry">
            <Array as="points">
              <mxPoint x="520" y="240" />
              <mxPoint x="520" y="360" />
            </Array>
          </mxGeometry>
        </mxCell>
        <mxCell id="hiQsKNsFAglLUoJC1yVU-4" value="Amazon&lt;br&gt;Elastic Container Service" style="whiteSpace=wrap;html=1;aspect=fixed;" vertex="1" parent="1">
          <mxGeometry x="360" y="200" width="80" height="80" as="geometry" />
        </mxCell>
        <mxCell id="hiQsKNsFAglLUoJC1yVU-8" value="Amazon&lt;br&gt;ElastiCache" style="whiteSpace=wrap;html=1;aspect=fixed;" vertex="1" parent="1">
          <mxGeometry x="560" y="80" width="80" height="80" as="geometry" />
        </mxCell>
        <mxCell id="hiQsKNsFAglLUoJC1yVU-9" value="Amazon Aurora" style="whiteSpace=wrap;html=1;aspect=fixed;" vertex="1" parent="1">
          <mxGeometry x="560" y="200" width="80" height="80" as="geometry" />
        </mxCell>
        <mxCell id="hiQsKNsFAglLUoJC1yVU-10" value="Amazon DynamoDB" style="whiteSpace=wrap;html=1;aspect=fixed;" vertex="1" parent="1">
          <mxGeometry x="560" y="320" width="80" height="80" as="geometry" />
        </mxCell>
        <mxCell id="hiQsKNsFAglLUoJC1yVU-15" value="" style="endArrow=none;dashed=1;html=1;dashPattern=1 3;strokeWidth=2;rounded=0;" edge="1" parent="1">
          <mxGeometry width="50" height="50" relative="1" as="geometry">
            <mxPoint x="200" y="560" as="sourcePoint" />
            <mxPoint x="200" y="40" as="targetPoint" />
          </mxGeometry>
        </mxCell>
        <mxCell id="hiQsKNsFAglLUoJC1yVU-16" value="" style="endArrow=none;dashed=1;html=1;dashPattern=1 3;strokeWidth=2;rounded=0;" edge="1" parent="1">
          <mxGeometry width="50" height="50" relative="1" as="geometry">
            <mxPoint x="480" y="560" as="sourcePoint" />
            <mxPoint x="480" y="40" as="targetPoint" />
          </mxGeometry>
        </mxCell>
        <mxCell id="hiQsKNsFAglLUoJC1yVU-17" value="User Interface" style="text;html=1;strokeColor=none;fillColor=none;align=center;verticalAlign=middle;whiteSpace=wrap;rounded=0;" vertex="1" parent="1">
          <mxGeometry x="40" y="40" width="130" height="30" as="geometry" />
        </mxCell>
        <mxCell id="hiQsKNsFAglLUoJC1yVU-20" value="Compute Implementation" style="text;html=1;strokeColor=none;fillColor=none;align=center;verticalAlign=middle;whiteSpace=wrap;rounded=0;" vertex="1" parent="1">
          <mxGeometry x="220" y="40" width="220" height="30" as="geometry" />
        </mxCell>
        <mxCell id="hiQsKNsFAglLUoJC1yVU-21" value="Data Store" style="text;html=1;strokeColor=none;fillColor=none;align=center;verticalAlign=middle;whiteSpace=wrap;rounded=0;" vertex="1" parent="1">
          <mxGeometry x="535" y="40" width="130" height="30" as="geometry" />
        </mxCell>
      </root>
    </mxGraphModel>
  </diagram>
</mxfile>
